<svg width="21" height="20" viewBox="0 0 21 20" fill="none" xmlns="http://www.w3.org/2000/svg">
<path fill-rule="evenodd" clip-rule="evenodd" d="M10.7917 15.4545C13.8042 15.4545 16.2463 13.0125 16.2463 10C16.2463 6.98754 13.8042 4.54545 10.7917 4.54545C7.77929 4.54545 5.3372 6.98754 5.3372 10C5.3372 13.0125 7.77929 15.4545 10.7917 15.4545ZM10.7917 13.6364C12.8 13.6364 14.4281 12.0083 14.4281 10C14.4281 7.99169 12.8 6.36364 10.7917 6.36364C8.78344 6.36364 7.15538 7.99169 7.15538 10C7.15538 12.0083 8.78344 13.6364 10.7917 13.6364Z" fill="#333"/>
<path d="M16.2463 3.63636C15.7442 3.63636 15.3372 4.04338 15.3372 4.54545C15.3372 5.04753 15.7442 5.45455 16.2463 5.45455C16.7484 5.45455 17.1554 5.04753 17.1554 4.54545C17.1554 4.04338 16.7484 3.63636 16.2463 3.63636Z" fill="#333"/>
<path fill-rule="evenodd" clip-rule="evenodd" d="M1.38626 2.97824C0.791748 4.14503 0.791748 5.67245 0.791748 8.72727V11.2727C0.791748 14.3275 0.791748 15.855 1.38626 17.0217C1.9092 18.0481 2.74364 18.8825 3.76998 19.4055C4.93678 20 6.46419 20 9.51902 20H12.0645C15.1193 20 16.6467 20 17.8135 19.4055C18.8398 18.8825 19.6743 18.0481 20.1972 17.0217C20.7917 15.855 20.7917 14.3275 20.7917 11.2727V8.72727C20.7917 5.67245 20.7917 4.14503 20.1972 2.97824C19.6743 1.95189 18.8398 1.11745 17.8135 0.594509C16.6467 0 15.1193 0 12.0645 0H9.51902C6.46419 0 4.93678 0 3.76998 0.594509C2.74364 1.11745 1.9092 1.95189 1.38626 2.97824ZM12.0645 1.81818H9.51902C7.9616 1.81818 6.90289 1.8196 6.08455 1.88645C5.28742 1.95158 4.87979 2.06963 4.59542 2.21452C3.91119 2.56315 3.3549 3.11945 3.00627 3.80367C2.86138 4.08804 2.74333 4.49567 2.6782 5.2928C2.61135 6.11114 2.60993 7.16985 2.60993 8.72727V11.2727C2.60993 12.8302 2.61135 13.8888 2.6782 14.7072C2.74333 15.5044 2.86138 15.912 3.00627 16.1964C3.3549 16.8805 3.91119 17.4368 4.59542 17.7855C4.87979 17.9304 5.28742 18.0485 6.08455 18.1135C6.90289 18.1804 7.9616 18.1818 9.51902 18.1818H12.0645C13.6219 18.1818 14.6806 18.1804 15.4989 18.1135C16.2961 18.0485 16.7037 17.9304 16.9881 17.7855C17.6723 17.4368 18.2286 16.8805 18.5772 16.1964C18.7221 15.912 18.8402 15.5044 18.9053 14.7072C18.9721 13.8888 18.9736 12.8302 18.9736 11.2727V8.72727C18.9736 7.16985 18.9721 6.11114 18.9053 5.2928C18.8402 4.49567 18.7221 4.08804 18.5772 3.80367C18.2286 3.11945 17.6723 2.56315 16.9881 2.21452C16.7037 2.06963 16.2961 1.95158 15.4989 1.88645C14.6806 1.8196 13.6219 1.81818 12.0645 1.81818Z" fill="#333"/>
</svg>
