<svg width="21" height="20" viewBox="0 0 21 20" fill="none" xmlns="http://www.w3.org/2000/svg">
<path d="M19.1901 0.00179364H2.50409C2.28902 -0.00828044 2.07407 0.0241544 1.87155 0.0972602C1.66903 0.170366 1.48292 0.282693 1.32386 0.427804C1.16481 0.572929 1.03594 0.748 0.944634 0.942982C0.85333 1.13798 0.801372 1.34906 0.791748 1.56415V18.2877C0.804347 18.7377 0.988805 19.1661 1.30724 19.4844C1.62567 19.8029 2.05393 19.9874 2.50409 20H19.1901C19.6276 19.9805 20.0402 19.7903 20.3393 19.4702C20.6384 19.1501 20.8002 18.7256 20.7899 18.2877V1.56415C20.7935 1.35479 20.7543 1.14693 20.6747 0.953269C20.5951 0.759624 20.4767 0.584278 20.3268 0.437979C20.1771 0.291692 19.999 0.177553 19.8035 0.102547C19.608 0.0275416 19.3993 -0.00674308 19.1901 0.00179364ZM7.04118 16.6753H4.12894V7.76362H7.04118V16.6753ZM5.6538 6.41371C5.45058 6.42079 5.24809 6.38577 5.05906 6.31085C4.87001 6.23594 4.6985 6.12273 4.55532 5.97836C4.41212 5.83398 4.30031 5.66156 4.22695 5.47192C4.15357 5.28227 4.12021 5.0795 4.12894 4.87635C4.11996 4.67099 4.15399 4.46603 4.22887 4.27461C4.30375 4.08318 4.41782 3.90952 4.56374 3.76477C4.70968 3.62001 4.88425 3.50736 5.07627 3.43404C5.2683 3.36071 5.47353 3.32834 5.6788 3.33899C5.88202 3.33191 6.08451 3.36692 6.27355 3.44184C6.46259 3.51676 6.6341 3.62996 6.77729 3.77434C6.92049 3.91871 7.03229 4.09113 7.10566 4.28078C7.17904 4.47042 7.2124 4.67319 7.20366 4.87635C7.21265 5.0817 7.17861 5.28666 7.10373 5.47808C7.02885 5.66951 6.91479 5.84317 6.76886 5.98792C6.62293 6.13268 6.44836 6.24533 6.25634 6.31865C6.0643 6.39198 5.85907 6.42436 5.6538 6.41371ZM17.4652 16.6753H14.5405V11.8007C14.5405 10.6384 14.128 9.83843 13.0906 9.83843C12.7684 9.84118 12.4548 9.94355 12.1931 10.1315C11.9312 10.3195 11.734 10.5839 11.6283 10.8883C11.547 11.1166 11.513 11.3589 11.5283 11.6008V16.6753H8.65353V7.76362H11.5283V9.01351C11.7839 8.54392 12.1642 8.15421 12.6274 7.88723C13.0906 7.62038 13.6186 7.48675 14.153 7.50111C16.0404 7.50111 17.4652 8.75103 17.4652 11.4133V16.6753Z" fill="#333"/>
</svg>
